<svg xmlns="http://www.w3.org/2000/svg" xmlns:xlink="http://www.w3.org/1999/xlink" width="29.698" height="31.735" viewBox="0 0 29.698 31.735">
  <defs>
    <clipPath id="clip-path">
      <rect width="27.693" height="17.247" fill="none"/>
    </clipPath>
  </defs>
  <g id="Grupo_25" data-name="Grupo 25" transform="translate(-286.669 -747.761)">
    <g id="Grupo_19" data-name="Grupo 19" transform="translate(2151.53 -112.732)">
      <g id="Trazado_8" data-name="Trazado 8" transform="translate(-1864.862 863.789)" fill="none">
        <path d="M14.849,0C23.05,0,29.7,6.366,29.7,14.22s-6.648,14.22-14.849,14.22S0,22.073,0,14.22,6.648,0,14.849,0Z" stroke="none"/>
        <path d="M 14.848876953125 1.000003814697266 C 11.14156723022461 1.000003814697266 7.658317565917969 2.380464553833008 5.040767669677734 4.8870849609375 C 2.435037612915039 7.382383346557617 0.9999961853027344 10.69675445556641 0.9999961853027344 14.21963405609131 C 0.9999961853027344 17.74251365661621 2.435037612915039 21.056884765625 5.040767669677734 23.55218505859375 C 7.658317565917969 26.05880355834961 11.14156723022461 27.43926429748535 14.848876953125 27.43926429748535 C 18.55618667602539 27.43926429748535 22.03943634033203 26.05880355834961 24.65698623657227 23.55218505859375 C 27.26271629333496 21.056884765625 28.69775772094727 17.74251365661621 28.69775772094727 14.21963405609131 C 28.69775772094727 10.69675445556641 27.26271629333496 7.382383346557617 24.65698623657227 4.8870849609375 C 22.03943634033203 2.380464553833008 18.55618667602539 1.000003814697266 14.848876953125 1.000003814697266 M 14.848876953125 3.814697265625e-06 C 23.04968643188477 3.814697265625e-06 29.69775772094727 6.366344451904297 29.69775772094727 14.21963405609131 C 29.69775772094727 22.07292366027832 23.04968643188477 28.43926429748535 14.848876953125 28.43926429748535 C 6.648067474365234 28.43926429748535 -3.814697265625e-06 22.07292366027832 -3.814697265625e-06 14.21963405609131 C -3.814697265625e-06 6.366344451904297 6.648067474365234 3.814697265625e-06 14.848876953125 3.814697265625e-06 Z" stroke="none" fill="#000"/>
      </g>
      <g id="Cuadrícula_de_repetición_4" data-name="Cuadrícula de repetición 4" transform="translate(-1863.857 869.633)" clip-path="url(#clip-path)">
        <g transform="translate(1866.018 -867.692)">
          <g id="Trazado_9" data-name="Trazado 9" transform="matrix(1, -0.017, 0.017, 1, -1869.018, 868.118)" fill="none">
            <path d="M16.258,0c8.979,0,16.258,3.41,16.258,7.617s-7.279,7.617-16.258,7.617S0,11.824,0,7.617,7.279,0,16.258,0Z" stroke="none"/>
            <path d="M 16.25768852233887 0.9999971389770508 C 12.05867767333984 0.9999971389770508 8.126688003540039 1.758747100830078 5.186029434204102 3.136487007141113 C 2.525749206542969 4.382866859436035 0.9999980926513672 6.015926361083984 0.9999980926513672 7.616936683654785 C 0.9999980926513672 9.217947006225586 2.525749206542969 10.85100650787354 5.186029434204102 12.09738636016846 C 8.126688003540039 13.47512626647949 12.05867767333984 14.23387718200684 16.25768852233887 14.23387718200684 C 20.45669937133789 14.23387718200684 24.38868713378906 13.47512626647949 27.32934951782227 12.09738636016846 C 29.98962783813477 10.85100650787354 31.51537895202637 9.217947006225586 31.51537895202637 7.616936683654785 C 31.51537895202637 6.015926361083984 29.98962783813477 4.382866859436035 27.32934951782227 3.136487007141113 C 24.38868713378906 1.758747100830078 20.45669937133789 0.9999971389770508 16.25768852233887 0.9999971389770508 M 16.25768852233887 -2.86102294921875e-06 C 25.23655891418457 -2.86102294921875e-06 32.51537704467773 3.410216331481934 32.51537704467773 7.616936683654785 C 32.51537704467773 11.82365703582764 25.23655891418457 15.23387622833252 16.25768852233887 15.23387622833252 C 7.278818130493164 15.23387622833252 0 11.82365703582764 0 7.616936683654785 C 0 3.410216331481934 7.278818130493164 -2.86102294921875e-06 16.25768852233887 -2.86102294921875e-06 Z" stroke="none" fill="#000"/>
          </g>
        </g>
      </g>
      <g id="Trazado_10" data-name="Trazado 10" transform="translate(-1851.66 870.004)">
        <path d="M 6.169389724731445 -5.355078220367432 C 5.764734745025635 -5.566070556640625 5.288403034210205 -5.794201850891113 4.791682243347168 -5.989441871643066 C 4.746460914611816 -6.355099678039551 4.425922870635986 -6.513670444488525 4.045803546905518 -6.659207344055176 C 3.682597160339355 -6.801797866821289 2.213521957397461 -6.968680858612061 1.312940001487732 -6.968680858612061 C -0.7399574518203735 -6.968680858612061 -2.092151165008545 -6.300302505493164 -2.674100637435913 -5.691102504730225 L -3.31519889831543 -5.40355396270752 C -3.073506832122803 -6.055384159088135 -2.848030090332031 -6.61279821395874 -2.755463361740112 -6.747846603393555 C -2.569927215576172 -6.953080177307129 -1.329217195510864 -7.522659301757813 -0.03578994795680046 -7.667320728302002 L 0.4381700456142426 -7.720330715179443 L 0.4083783626556396 -8.18232536315918 C 0.4084368050098419 -8.21550178527832 0.4147057831287384 -8.550353050231934 0.6323200464248657 -8.772090911865234 C 0.7874500751495361 -8.930171012878418 1.034560084342957 -9.010320663452148 1.366790056228638 -9.010320663452148 C 1.407260060310364 -9.010320663452148 1.449480056762695 -9.009100914001465 1.492269992828369 -9.00670051574707 C 2.059980154037476 -8.974870681762695 2.224020004272461 -8.841390609741211 2.260770082473755 -8.801240921020508 C 2.30334997177124 -8.754731178283691 2.311959981918335 -8.685920715332031 2.320359945297241 -8.550690650939941 C 2.330600023269653 -8.385790824890137 2.347730159759521 -8.109810829162598 2.601550102233887 -7.936640739440918 L 2.600842237472534 -7.937564373016357 C 2.675831079483032 -7.886558532714844 2.761519432067871 -7.853399276733398 2.845809936523438 -7.820780754089355 C 2.936249971389771 -7.785790920257568 3.064419984817505 -7.738110542297363 3.217580080032349 -7.681180953979492 C 4.631807804107666 -7.155435562133789 5.441795349121094 -6.804928302764893 5.625892639160156 -6.639084339141846 C 5.728986263275146 -6.485799789428711 5.941214084625244 -5.96904182434082 6.169389724731445 -5.355078220367432 Z" stroke="none"/>
        <path d="M 1.366790533065796 -8.510320663452148 C 1.034977793693542 -8.510320663452148 0.9171890020370483 -8.430601119995117 0.9087479114532471 -8.196016311645508 L 0.9807802438735962 -7.463149547576904 C 1.089502692222595 -7.466800689697266 1.200336337089539 -7.468680858612061 1.31294047832489 -7.468680858612061 C 1.6398766040802 -7.468680858612061 2.095662593841553 -7.444682598114014 2.556303977966309 -7.403102874755859 C 2.466904163360596 -7.442685127258301 2.389094591140747 -7.482181072235107 2.320832967758179 -7.525182723999023 L 2.31976056098938 -7.523610591888428 C 2.305263042449951 -7.533502101898193 2.291216373443604 -7.543566703796387 2.277565002441406 -7.55381965637207 C 2.186281681060791 -7.617386817932129 2.113539934158325 -7.689562320709229 2.053776741027832 -7.780535221099854 C 1.874651670455933 -8.027139663696289 1.837631940841675 -8.301708221435547 1.825331091880798 -8.460564613342285 C 1.751177430152893 -8.478371620178223 1.635541439056396 -8.497884750366211 1.46427047252655 -8.507490158081055 C 1.430770516395569 -8.509370803833008 1.39797055721283 -8.510320663452148 1.366790533065796 -8.510320663452148 M 1.366793394088745 -9.510320663452148 C 1.416334390640259 -9.510320663452148 1.467300295829773 -9.508890151977539 1.520260572433472 -9.50592041015625 C 3.192140579223633 -9.41217041015625 2.680220603942871 -8.488250732421875 2.88334059715271 -8.34967041015625 C 2.899580478668213 -8.3031005859375 5.709730625152588 -7.369910717010498 6.019840240478516 -6.947940826416016 C 6.329960823059082 -6.525970935821533 7.087280750274658 -4.253971099853516 7.087280750274658 -4.253971099853516 C 7.087280750274658 -4.253971099853516 5.685100555419922 -5.157040596008301 4.250340461730957 -5.657200813293457 C 4.324770450592041 -5.952390670776367 4.395260810852051 -5.990290641784668 3.864010572433472 -6.193420886993408 C 3.627950668334961 -6.290820598602295 2.251700401306152 -6.468680858612061 1.31294047832489 -6.468680858612061 C -0.750279426574707 -6.468680858612061 -1.962839603424072 -5.76792049407959 -2.373279571533203 -5.278040885925293 L -4.179199695587158 -4.468040466308594 C -4.179199695587158 -4.468040466308594 -3.419889450073242 -6.689590930938721 -3.156069278717041 -7.04723072052002 C -2.89225959777832 -7.404880523681641 -1.423049449920654 -8.015280723571777 -0.09135937690734863 -8.164220809936523 C -0.09135937690734863 -8.164220809936523 -0.1475965976715088 -9.510320663452148 1.366793394088745 -9.510320663452148 Z" stroke="none" fill="#000"/>
      </g>
      <g id="Grupo_11" data-name="Grupo 11" transform="translate(-1857.032 873.697)">
        <path id="Trazado_3" data-name="Trazado 3" d="M21.679,37.725h.969v6.9H24.3v-6.9h.969L25.946,36H21Z" transform="translate(-16.732 -36)"/>
        <path id="Trazado_4" data-name="Trazado 4" d="M16.561,36H14v8.623h2.561A1.718,1.718,0,0,0,18.268,42.9V41.174a1.719,1.719,0,0,0-.237-.862,1.719,1.719,0,0,0,.237-.862V37.725A1.718,1.718,0,0,0,16.561,36Zm-.854,1.725h.854v1.725h-.854Zm0,5.174V41.174h.854V42.9Z" transform="translate(-14 -36)"/>
        <path id="Trazado_5" data-name="Trazado 5" d="M33.828,38.549V37.7A1.828,1.828,0,0,0,31.9,36h-.966A1.828,1.828,0,0,0,29,37.7v1.245a1.653,1.653,0,0,0,.86,1.414L31.9,41.553V42.8h-.966v-.85H29v.85a1.828,1.828,0,0,0,1.931,1.7H31.9a2.139,2.139,0,0,0,1.524-.657,1.471,1.471,0,0,0,.407-1.043V41.553a1.653,1.653,0,0,0-.86-1.414l-2.037-1.195L30.6,37.337l1.3.362v.85Z" transform="translate(-19.786 -35.874)"/>
      </g>
    </g>
  </g>
</svg>
