<svg xmlns="http://www.w3.org/2000/svg" width="36.959" height="15" viewBox="0 0 36.959 15">
  <g id="Grupo_7" data-name="Grupo 7" transform="translate(-41 -29)">
    <path id="Trazado_3" data-name="Trazado 3" d="M22.785,39h2.548V51h4.333V39h2.548L34,36H21Z" transform="translate(33.106 -7)" fill="#fff"/>
    <path id="Trazado_4" data-name="Trazado 4" d="M20.466,36H14V51h6.466c2.377,0,4.31-1.345,4.31-3V45a2.337,2.337,0,0,0-.6-1.5,2.338,2.338,0,0,0,.6-1.5V39C24.776,37.345,22.843,36,20.466,36ZM18.31,39h2.155l0,3H18.31Zm0,9V45h2.155l0,3Z" transform="translate(27 -7)" fill="#fff"/>
    <path id="Trazado_5" data-name="Trazado 5" d="M37.523,40.5V39a3.228,3.228,0,0,0-3.409-3h-1.7A3.227,3.227,0,0,0,29,39v2.2a2.918,2.918,0,0,0,1.519,2.5L34.114,45.8V48h-1.7V46.5H29V48a3.227,3.227,0,0,0,3.409,3h1.7a3.228,3.228,0,0,0,3.409-3V45.8A2.917,2.917,0,0,0,36,43.306L32.409,41.2V39h1.7v1.5Z" transform="translate(40.437 -7)" fill="#fff"/>
  </g>
</svg>
