<svg xmlns="http://www.w3.org/2000/svg" xmlns:xlink="http://www.w3.org/1999/xlink" width="22.662" height="24.555" viewBox="0 0 22.662 24.555">
  <defs>
    <clipPath id="clip-path">
      <rect width="20.658" height="15.247" fill="none"/>
    </clipPath>
  </defs>
  <g id="Grupo_12" data-name="Grupo 12" transform="translate(1864.862 -861.733)">
    <g id="Trazado_8" data-name="Trazado 8" transform="translate(-1864.862 863.789)" fill="none">
      <path d="M11.331,0A11.25,11.25,0,1,1,0,11.249,11.291,11.291,0,0,1,11.331,0Z" stroke="none"/>
      <path d="M 11.3311767578125 0.9999980926513672 C 5.634546279907227 0.9999980926513672 0.9999961853027344 5.597858428955078 0.9999961853027344 11.24938869476318 C 0.9999961853027344 16.90091896057129 5.634546279907227 21.498779296875 11.3311767578125 21.498779296875 C 17.02780723571777 21.498779296875 21.66235733032227 16.90091896057129 21.66235733032227 11.24938869476318 C 21.66235733032227 5.597858428955078 17.02780723571777 0.9999980926513672 11.3311767578125 0.9999980926513672 M 11.3311767578125 -1.9073486328125e-06 C 17.5892162322998 -1.9073486328125e-06 22.66235733032227 5.036518096923828 22.66235733032227 11.24938869476318 C 22.66235733032227 17.46224975585938 17.5892162322998 22.498779296875 11.3311767578125 22.498779296875 C 5.073137283325195 22.498779296875 -3.814697265625e-06 17.46224975585938 -3.814697265625e-06 11.24938869476318 C -3.814697265625e-06 5.036518096923828 5.073137283325195 -1.9073486328125e-06 11.3311767578125 -1.9073486328125e-06 Z" stroke="none" fill="#fff"/>
    </g>
    <g id="Cuadrícula_de_repetición_4" data-name="Cuadrícula de repetición 4" transform="translate(-1863.857 867.692)" clip-path="url(#clip-path)">
      <g transform="translate(1866.018 -867.692)">
        <g id="Trazado_9" data-name="Trazado 9" transform="matrix(1, -0.017, 0.017, 1, -1868.018, 868.118)" fill="none">
          <path d="M12.2,0C18.94,0,24.4,3.318,24.4,7.412s-5.463,7.412-12.2,7.412S0,11.5,0,7.412,5.463,0,12.2,0Z" stroke="none"/>
          <path d="M 12.20155429840088 0.9999990463256836 C 9.12291431427002 0.9999990463256836 6.243204116821289 1.719328880310059 4.092914581298828 3.02548885345459 C 2.098424911499023 4.237009048461914 1.000003814697266 5.794698715209961 1.000003814697266 7.411619186401367 C 1.000003814697266 9.028539657592773 2.098424911499023 10.58622932434082 4.092914581298828 11.79774951934814 C 6.243204116821289 13.10390949249268 9.12291431427002 13.82323932647705 12.20155429840088 13.82323932647705 C 15.28019428253174 13.82323932647705 18.15990447998047 13.10390949249268 20.31019401550293 11.79774951934814 C 22.30468368530273 10.58622932434082 23.40310478210449 9.028539657592773 23.40310478210449 7.411619186401367 C 23.40310478210449 5.794698715209961 22.30468368530273 4.237009048461914 20.31019401550293 3.02548885345459 C 18.15990447998047 1.719328880310059 15.28019428253174 0.9999990463256836 12.20155429840088 0.9999990463256836 M 12.20155429840088 -9.5367431640625e-07 C 18.94028472900391 -9.5367431640625e-07 24.40310478210449 3.318299293518066 24.40310478210449 7.411619186401367 C 24.40310478210449 11.50493907928467 18.94028472900391 14.82323932647705 12.20155429840088 14.82323932647705 C 5.462823867797852 14.82323932647705 3.814697265625e-06 11.50493907928467 3.814697265625e-06 7.411619186401367 C 3.814697265625e-06 3.318299293518066 5.462823867797852 -9.5367431640625e-07 12.20155429840088 -9.5367431640625e-07 Z" stroke="none" fill="#fff"/>
        </g>
      </g>
    </g>
    <g id="Trazado_10" data-name="Trazado 10" transform="translate(-1853.54 871.332)" fill="#fff">
      <path d="M 3.362718343734741 -7.546549320220947 C 3.111997604370117 -7.636464595794678 2.839350461959839 -7.726263999938965 2.56015157699585 -7.804837703704834 C 2.378945827484131 -7.977973461151123 2.081169843673706 -8.051406860351563 1.630013227462769 -8.150790214538574 C 1.519453287124634 -8.175140380859375 1.405133247375488 -8.200320243835449 1.34212327003479 -8.219270706176758 C 1.284058690071106 -8.237037658691406 1.219513416290283 -8.253264427185059 1.141072988510132 -8.267533302307129 C 1.144377112388611 -8.267484664916992 1.147656083106995 -8.267460823059082 1.150933265686035 -8.267460823059082 C 1.156951546669006 -8.267460823059082 1.162954688072205 -8.267558097839355 1.168942213058472 -8.267752647399902 C 1.301428198814392 -8.229265213012695 1.497998595237732 -8.183723449707031 1.815093278884888 -8.111080169677734 C 2.21433162689209 -8.019622802734375 3.026507616043091 -7.833564758300781 3.250400304794312 -7.726340293884277 C 3.279150724411011 -7.687705993652344 3.317624568939209 -7.625618934631348 3.362718343734741 -7.546549320220947 Z M -3.19605016708374 -7.556278705596924 C -3.134976148605347 -7.667268753051758 -3.084089994430542 -7.752699375152588 -3.050352334976196 -7.798231601715088 C -2.854173421859741 -7.920317649841309 -1.944819450378418 -8.214497566223145 -1.025456666946411 -8.290730476379395 L -0.2877767086029053 -8.351900100708008 L -0.569042444229126 -8.912027359008789 C -0.4966167807579041 -8.957265853881836 -0.3202539384365082 -9.037518501281738 0.06419327855110168 -9.085370063781738 C 0.1370132863521576 -9.094430923461914 0.204623281955719 -9.099030494689941 0.2651332914829254 -9.099030494689941 C 0.5500032901763916 -9.099030494689941 0.558573305606842 -9.048520088195801 0.5946632623672485 -8.835930824279785 C 0.6542376279830933 -8.485033988952637 0.818108081817627 -8.341190338134766 0.9846291542053223 -8.290847778320313 C 0.7707728147506714 -8.316665649414063 0.4692064821720123 -8.331830024719238 0.002433281159028411 -8.331830024719238 C -1.545133352279663 -8.331830024719238 -2.56793475151062 -7.968892097473145 -3.048123836517334 -7.60547399520874 L -3.19605016708374 -7.556278705596924 Z" stroke="none"/>
      <path d="M 0.265131801366806 -9.599030494689941 C 1.237903952598572 -9.599030494689941 1.013660907745361 -8.767459869384766 1.150931000709534 -8.767459869384766 C 1.162526369094849 -8.767459869384766 1.176681041717529 -8.773378372192383 1.194375038146973 -8.786239624023438 C 1.195874452590942 -8.785466194152832 1.197073459625244 -8.785032272338867 1.197872996330261 -8.785032272338867 C 1.19919764995575 -8.785032272338867 1.199428200721741 -8.786223411560059 1.198113203048706 -8.789020538330078 C 1.196850538253784 -8.788060188293457 1.195603609085083 -8.787132263183594 1.194375038146973 -8.786239624023438 C 1.181738972663879 -8.792760848999023 1.147750735282898 -8.823518753051758 1.151377558708191 -8.823519706726074 C 1.15330958366394 -8.823520660400391 1.165916442871094 -8.814791679382324 1.198113203048706 -8.789020538330078 C 1.30979323387146 -8.699630737304688 3.350083351135254 -8.340610504150391 3.586193323135376 -8.102390289306641 C 3.82231330871582 -7.864170074462891 4.398923397064209 -6.581540107727051 4.398923397064209 -6.581540107727051 C 4.398923397064209 -6.581540107727051 3.33133339881897 -7.091360092163086 2.238923311233521 -7.373720169067383 C 2.29559326171875 -7.540370941162109 1.499443292617798 -7.64983081817627 1.198113203048706 -7.740460395812988 C 1.018373250961304 -7.795450210571289 0.7171932458877563 -7.831830024719238 0.002433285117149353 -7.831830024719238 C -1.568466663360596 -7.831830024719238 -2.491696834564209 -7.436220169067383 -2.804196834564209 -7.159670829772949 L -4.179196834564209 -6.702390670776367 C -4.179196834564209 -6.702390670776367 -3.601076602935791 -7.956540107727051 -3.400206804275513 -8.158450126647949 C -3.199336767196655 -8.360350608825684 -2.080706834793091 -8.704950332641602 -1.066776752471924 -8.789020538330078 C -1.066776752471924 -8.789020538330078 -1.378436684608459 -9.409669876098633 0.002433285117149353 -9.581541061401367 C 0.09851432591676712 -9.593500137329102 0.1858127117156982 -9.599030494689941 0.265131801366806 -9.599030494689941 Z" stroke="none" fill="#fff"/>
    </g>
    <g id="Grupo_11" data-name="Grupo 11" transform="translate(-1900 843)">
      <path id="Trazado_3" data-name="Trazado 3" d="M21.653,37.607h.932v6.427H24.17V37.607H25.1L25.754,36H21Z" transform="translate(23.268 -7.534)" fill="#fff"/>
      <path id="Trazado_4" data-name="Trazado 4" d="M16.092,36H14v8.034h2.092a1.514,1.514,0,0,0,1.395-1.607V40.82a1.775,1.775,0,0,0-.194-.8,1.775,1.775,0,0,0,.194-.8V37.607A1.514,1.514,0,0,0,16.092,36Zm-.7,1.607h.7v1.607h-.7Zm0,4.82V40.82h.7v1.607Z" transform="translate(26 -7.534)" fill="#fff"/>
      <path id="Trazado_5" data-name="Trazado 5" d="M33.411,38.329v-.776A1.67,1.67,0,0,0,31.647,36h-.882A1.67,1.67,0,0,0,29,37.553V38.69a1.51,1.51,0,0,0,.786,1.292l1.861,1.092v1.137h-.882v-.776H29v.776a1.67,1.67,0,0,0,1.764,1.553h.882a1.955,1.955,0,0,0,1.393-.6,1.344,1.344,0,0,0,.372-.953V41.073a1.51,1.51,0,0,0-.786-1.292L30.764,38.69l-.305-1.469,1.187.331v.776Z" transform="translate(20.214 -7.408)" fill="#fff"/>
    </g>
  </g>
</svg>
