<svg xmlns="http://www.w3.org/2000/svg" width="46" height="34" viewBox="0 0 46 34">
  <g id="Grupo_15" data-name="Grupo 15" transform="translate(-283 -382)">
    <rect id="Rectángulo_13" data-name="Rectángulo 13" width="46" height="34" rx="7" transform="translate(283 382)" fill="#ceb8d7"/>
    <g id="Grupo_14" data-name="Grupo 14" transform="translate(1728.738 -308.802)">
      <g id="Polígono_1" data-name="Polígono 1" transform="translate(-1406.993 693.078) rotate(89)" fill="none">
        <path d="M11.007,6.264a4,4,0,0,1,6.987,0l7.689,13.788A4,4,0,0,1,22.189,26H6.811a4,4,0,0,1-3.493-5.948Z" stroke="none"/>
        <path d="M 14.5 6.212398529052734 C 14.14682960510254 6.212398529052734 13.26963996887207 6.312356948852539 12.75326919555664 7.23826789855957 L 5.064029693603516 21.02585792541504 C 4.560760498046875 21.92827796936035 4.911869049072266 22.7160472869873 5.086189270019531 23.01285743713379 C 5.260509490966797 23.30966758728027 5.777500152587891 24.00000762939453 6.810760498046875 24.00000762939453 L 22.18923950195313 24.00000762939453 C 23.22249984741211 24.00000762939453 23.7394905090332 23.30966758728027 23.91381072998047 23.01285743713379 C 24.08811950683594 22.7160472869873 24.43922996520996 21.92827796936035 23.93595886230469 21.0258674621582 L 16.24671936035156 7.238258361816406 C 15.73034954071045 6.312356948852539 14.85317039489746 6.212398529052734 14.5 6.212398529052734 M 14.49999904632568 4.212398529052734 C 15.86531543731689 4.212398529052734 17.23062896728516 4.896306991577148 17.99345016479492 6.264127731323242 L 25.68268966674805 20.05172729492188 C 27.16963005065918 22.71795845031738 25.2420597076416 26.00000762939453 22.18923950195313 26.00000762939453 L 6.810760498046875 26.00000762939453 C 3.757940292358398 26.00000762939453 1.83036994934082 22.71795845031738 3.317300796508789 20.05172729492188 L 11.00654029846191 6.264127731323242 C 11.76936531066895 4.896306991577148 13.13468265533447 4.212398529052734 14.49999904632568 4.212398529052734 Z" stroke="none" fill="#fff"/>
      </g>
    </g>
  </g>
</svg>
